<mxfile host="app.diagrams.net" agent="Mozilla/5.0 (Windows NT 10.0; Win64; x64) AppleWebKit/537.36 (KHTML, like Gecko) Chrome/128.0.0.0 Safari/537.36 OPR/114.0.0.0" version="24.8.4">
  <diagram name="Сторінка-1" id="EHOrJvjLMRzK50lmoaZ_">
    <mxGraphModel dx="2046" dy="1054" grid="1" gridSize="10" guides="1" tooltips="1" connect="1" arrows="1" fold="1" page="1" pageScale="1" pageWidth="1169" pageHeight="1654" math="0" shadow="0">
      <root>
        <mxCell id="0" />
        <mxCell id="1" parent="0" />
        <mxCell id="5lGT_C94pFLsxoCqDlY4-63" value="" style="endArrow=none;dashed=1;html=1;rounded=0;entryX=1;entryY=0.5;entryDx=0;entryDy=0;entryPerimeter=0;exitX=0.002;exitY=0.501;exitDx=0;exitDy=0;exitPerimeter=0;" parent="1" source="5lGT_C94pFLsxoCqDlY4-61" target="5lGT_C94pFLsxoCqDlY4-61" edge="1">
          <mxGeometry width="50" height="50" relative="1" as="geometry">
            <mxPoint x="970" y="560" as="sourcePoint" />
            <mxPoint x="1020" y="510" as="targetPoint" />
          </mxGeometry>
        </mxCell>
        <mxCell id="5lGT_C94pFLsxoCqDlY4-1" value="User" style="shape=umlActor;verticalLabelPosition=bottom;verticalAlign=top;html=1;outlineConnect=0;" parent="1" vertex="1">
          <mxGeometry x="220" y="65" width="30" height="60" as="geometry" />
        </mxCell>
        <mxCell id="5lGT_C94pFLsxoCqDlY4-2" value="" style="rounded=0;whiteSpace=wrap;html=1;" parent="1" vertex="1">
          <mxGeometry x="400" y="190" width="10" height="600" as="geometry" />
        </mxCell>
        <mxCell id="5lGT_C94pFLsxoCqDlY4-3" value="" style="endArrow=none;dashed=1;html=1;dashPattern=1 3;strokeWidth=2;rounded=0;" parent="1" edge="1">
          <mxGeometry width="50" height="50" relative="1" as="geometry">
            <mxPoint x="404.86" y="810" as="sourcePoint" />
            <mxPoint x="404.86" y="790" as="targetPoint" />
          </mxGeometry>
        </mxCell>
        <mxCell id="5lGT_C94pFLsxoCqDlY4-4" value="" style="endArrow=none;dashed=1;html=1;dashPattern=1 3;strokeWidth=2;rounded=0;" parent="1" edge="1">
          <mxGeometry width="50" height="50" relative="1" as="geometry">
            <mxPoint x="404.86" y="190" as="sourcePoint" />
            <mxPoint x="404.86" y="150" as="targetPoint" />
          </mxGeometry>
        </mxCell>
        <mxCell id="5lGT_C94pFLsxoCqDlY4-5" value="" style="rounded=0;whiteSpace=wrap;html=1;" parent="1" vertex="1">
          <mxGeometry x="590" y="190" width="10" height="600" as="geometry" />
        </mxCell>
        <mxCell id="5lGT_C94pFLsxoCqDlY4-6" value="" style="endArrow=none;dashed=1;html=1;dashPattern=1 3;strokeWidth=2;rounded=0;" parent="1" edge="1">
          <mxGeometry width="50" height="50" relative="1" as="geometry">
            <mxPoint x="594.89" y="810" as="sourcePoint" />
            <mxPoint x="594.89" y="790" as="targetPoint" />
          </mxGeometry>
        </mxCell>
        <mxCell id="5lGT_C94pFLsxoCqDlY4-7" value="" style="endArrow=none;dashed=1;html=1;dashPattern=1 3;strokeWidth=2;rounded=0;" parent="1" edge="1">
          <mxGeometry width="50" height="50" relative="1" as="geometry">
            <mxPoint x="594.89" y="190" as="sourcePoint" />
            <mxPoint x="594.89" y="150" as="targetPoint" />
          </mxGeometry>
        </mxCell>
        <mxCell id="5lGT_C94pFLsxoCqDlY4-29" value="" style="rounded=0;whiteSpace=wrap;html=1;" parent="1" vertex="1">
          <mxGeometry x="1080" y="190" width="10" height="600" as="geometry" />
        </mxCell>
        <mxCell id="5lGT_C94pFLsxoCqDlY4-30" value="" style="endArrow=none;dashed=1;html=1;dashPattern=1 3;strokeWidth=2;rounded=0;" parent="1" edge="1">
          <mxGeometry width="50" height="50" relative="1" as="geometry">
            <mxPoint x="1084.92" y="810" as="sourcePoint" />
            <mxPoint x="1084.92" y="790" as="targetPoint" />
          </mxGeometry>
        </mxCell>
        <mxCell id="5lGT_C94pFLsxoCqDlY4-32" value="" style="rounded=0;whiteSpace=wrap;html=1;" parent="1" vertex="1">
          <mxGeometry x="910" y="190" width="10" height="600" as="geometry" />
        </mxCell>
        <mxCell id="5lGT_C94pFLsxoCqDlY4-33" value="" style="endArrow=none;dashed=1;html=1;dashPattern=1 3;strokeWidth=2;rounded=0;" parent="1" edge="1">
          <mxGeometry width="50" height="50" relative="1" as="geometry">
            <mxPoint x="914.9" y="810" as="sourcePoint" />
            <mxPoint x="914.9" y="790" as="targetPoint" />
          </mxGeometry>
        </mxCell>
        <mxCell id="5lGT_C94pFLsxoCqDlY4-34" value="" style="endArrow=none;dashed=1;html=1;dashPattern=1 3;strokeWidth=2;rounded=0;" parent="1" edge="1">
          <mxGeometry width="50" height="50" relative="1" as="geometry">
            <mxPoint x="1084.75" y="190" as="sourcePoint" />
            <mxPoint x="1084.75" y="150" as="targetPoint" />
          </mxGeometry>
        </mxCell>
        <mxCell id="5lGT_C94pFLsxoCqDlY4-35" value="" style="rounded=0;whiteSpace=wrap;html=1;" parent="1" vertex="1">
          <mxGeometry x="753.5" y="190" width="10" height="600" as="geometry" />
        </mxCell>
        <mxCell id="5lGT_C94pFLsxoCqDlY4-36" value="" style="endArrow=none;dashed=1;html=1;dashPattern=1 3;strokeWidth=2;rounded=0;" parent="1" edge="1">
          <mxGeometry width="50" height="50" relative="1" as="geometry">
            <mxPoint x="758.37" y="810" as="sourcePoint" />
            <mxPoint x="758.37" y="790" as="targetPoint" />
          </mxGeometry>
        </mxCell>
        <mxCell id="5lGT_C94pFLsxoCqDlY4-37" value="" style="endArrow=none;dashed=1;html=1;dashPattern=1 3;strokeWidth=2;rounded=0;" parent="1" edge="1">
          <mxGeometry width="50" height="50" relative="1" as="geometry">
            <mxPoint x="914.74" y="190" as="sourcePoint" />
            <mxPoint x="914.74" y="150" as="targetPoint" />
          </mxGeometry>
        </mxCell>
        <mxCell id="5lGT_C94pFLsxoCqDlY4-38" value="FTP Server" style="text;html=1;align=center;verticalAlign=middle;whiteSpace=wrap;rounded=0;strokeColor=default;" parent="1" vertex="1">
          <mxGeometry x="550" y="120" width="90" height="30" as="geometry" />
        </mxCell>
        <mxCell id="5lGT_C94pFLsxoCqDlY4-40" value="" style="endArrow=classic;html=1;rounded=0;entryX=0;entryY=0.014;entryDx=0;entryDy=0;entryPerimeter=0;exitX=1.016;exitY=0.015;exitDx=0;exitDy=0;exitPerimeter=0;" parent="1" edge="1">
          <mxGeometry width="50" height="50" relative="1" as="geometry">
            <mxPoint x="410.00000000000006" y="280.22" as="sourcePoint" />
            <mxPoint x="589.8399999999998" y="279.62" as="targetPoint" />
          </mxGeometry>
        </mxCell>
        <mxCell id="5lGT_C94pFLsxoCqDlY4-41" value="&lt;span style=&quot;font-size: 10px;&quot;&gt;Send Connection Request&lt;/span&gt;" style="text;html=1;align=center;verticalAlign=middle;whiteSpace=wrap;rounded=0;" parent="1" vertex="1">
          <mxGeometry x="410" y="260" width="130" height="20" as="geometry" />
        </mxCell>
        <mxCell id="5lGT_C94pFLsxoCqDlY4-42" value="" style="endArrow=classic;html=1;rounded=0;entryX=1.039;entryY=0.057;entryDx=0;entryDy=0;entryPerimeter=0;exitX=-0.009;exitY=0.057;exitDx=0;exitDy=0;exitPerimeter=0;dashed=1;" parent="1" source="5lGT_C94pFLsxoCqDlY4-5" target="5lGT_C94pFLsxoCqDlY4-2" edge="1">
          <mxGeometry width="50" height="50" relative="1" as="geometry">
            <mxPoint x="570" y="230" as="sourcePoint" />
            <mxPoint x="700" y="240" as="targetPoint" />
          </mxGeometry>
        </mxCell>
        <mxCell id="5lGT_C94pFLsxoCqDlY4-43" value="&lt;span style=&quot;font-size: 10px;&quot;&gt;Login Responce&lt;/span&gt;" style="text;html=1;align=center;verticalAlign=middle;whiteSpace=wrap;rounded=0;" parent="1" vertex="1">
          <mxGeometry x="403" y="208" width="102.5" height="10" as="geometry" />
        </mxCell>
        <mxCell id="5lGT_C94pFLsxoCqDlY4-44" value="" style="endArrow=classic;html=1;rounded=0;entryX=0;entryY=0.097;entryDx=0;entryDy=0;entryPerimeter=0;exitX=0.978;exitY=0.098;exitDx=0;exitDy=0;exitPerimeter=0;" parent="1" edge="1">
          <mxGeometry width="50" height="50" relative="1" as="geometry">
            <mxPoint x="409.78" y="400.29999999999995" as="sourcePoint" />
            <mxPoint x="590" y="399.70000000000005" as="targetPoint" />
          </mxGeometry>
        </mxCell>
        <mxCell id="5lGT_C94pFLsxoCqDlY4-45" value="&lt;span style=&quot;font-size: 10px;&quot;&gt;Send Login Request&lt;/span&gt;" style="text;html=1;align=center;verticalAlign=middle;whiteSpace=wrap;rounded=0;" parent="1" vertex="1">
          <mxGeometry x="400" y="385" width="125" height="10" as="geometry" />
        </mxCell>
        <mxCell id="5lGT_C94pFLsxoCqDlY4-46" value="" style="endArrow=classic;html=1;rounded=0;entryX=1.058;entryY=0.968;entryDx=0;entryDy=0;entryPerimeter=0;exitX=-0.015;exitY=0.968;exitDx=0;exitDy=0;exitPerimeter=0;dashed=1;" parent="1" source="5lGT_C94pFLsxoCqDlY4-5" target="5lGT_C94pFLsxoCqDlY4-2" edge="1">
          <mxGeometry width="50" height="50" relative="1" as="geometry">
            <mxPoint x="590" y="770" as="sourcePoint" />
            <mxPoint x="650" y="820" as="targetPoint" />
          </mxGeometry>
        </mxCell>
        <mxCell id="5lGT_C94pFLsxoCqDlY4-47" value="&lt;font style=&quot;font-size: 10px;&quot;&gt;Provide menu and user data&lt;/font&gt;" style="text;html=1;align=center;verticalAlign=middle;whiteSpace=wrap;rounded=0;" parent="1" vertex="1">
          <mxGeometry x="406" y="746" width="147" height="30" as="geometry" />
        </mxCell>
        <mxCell id="5lGT_C94pFLsxoCqDlY4-48" value="" style="endArrow=none;dashed=1;html=1;dashPattern=1 3;strokeWidth=2;rounded=0;" parent="1" edge="1">
          <mxGeometry width="50" height="50" relative="1" as="geometry">
            <mxPoint x="758.1800000000001" y="190" as="sourcePoint" />
            <mxPoint x="758.1800000000001" y="150" as="targetPoint" />
          </mxGeometry>
        </mxCell>
        <mxCell id="5lGT_C94pFLsxoCqDlY4-49" value="FTP Controller" style="text;html=1;align=center;verticalAlign=middle;whiteSpace=wrap;rounded=0;strokeColor=default;" parent="1" vertex="1">
          <mxGeometry x="710.5" y="120" width="96" height="30" as="geometry" />
        </mxCell>
        <mxCell id="5lGT_C94pFLsxoCqDlY4-50" value="" style="endArrow=classic;html=1;rounded=0;entryX=-0.005;entryY=0.133;entryDx=0;entryDy=0;entryPerimeter=0;exitX=1.026;exitY=0.133;exitDx=0;exitDy=0;exitPerimeter=0;" parent="1" edge="1">
          <mxGeometry width="50" height="50" relative="1" as="geometry">
            <mxPoint x="600.5" y="389.83" as="sourcePoint" />
            <mxPoint x="753.5" y="389.83" as="targetPoint" />
          </mxGeometry>
        </mxCell>
        <mxCell id="5lGT_C94pFLsxoCqDlY4-51" value="&lt;font style=&quot;font-size: 10px;&quot;&gt;Handle Login Request&lt;/font&gt;" style="text;html=1;align=center;verticalAlign=middle;whiteSpace=wrap;rounded=0;" parent="1" vertex="1">
          <mxGeometry x="595" y="365" width="120" height="30" as="geometry" />
        </mxCell>
        <mxCell id="5lGT_C94pFLsxoCqDlY4-52" value="" style="endArrow=classic;html=1;rounded=0;entryX=1.033;entryY=0.799;entryDx=0;entryDy=0;entryPerimeter=0;exitX=-0.001;exitY=0.799;exitDx=0;exitDy=0;exitPerimeter=0;dashed=1;" parent="1" edge="1">
          <mxGeometry width="50" height="50" relative="1" as="geometry">
            <mxPoint x="753.5000000000002" y="595.0000000000001" as="sourcePoint" />
            <mxPoint x="600.3399999999999" y="595.0000000000001" as="targetPoint" />
          </mxGeometry>
        </mxCell>
        <mxCell id="5lGT_C94pFLsxoCqDlY4-53" value="" style="endArrow=classic;html=1;rounded=0;entryX=-0.034;entryY=0.866;entryDx=0;entryDy=0;entryPerimeter=0;exitX=-0.001;exitY=0.799;exitDx=0;exitDy=0;exitPerimeter=0;" parent="1" edge="1">
          <mxGeometry width="50" height="50" relative="1" as="geometry">
            <mxPoint x="600" y="635" as="sourcePoint" />
            <mxPoint x="753" y="635" as="targetPoint" />
          </mxGeometry>
        </mxCell>
        <mxCell id="5lGT_C94pFLsxoCqDlY4-54" value="" style="endArrow=classic;html=1;rounded=0;entryX=1.047;entryY=0.968;entryDx=0;entryDy=0;entryPerimeter=0;exitX=-0.048;exitY=0.952;exitDx=0;exitDy=0;exitPerimeter=0;dashed=1;" parent="1" source="5lGT_C94pFLsxoCqDlY4-35" edge="1">
          <mxGeometry width="50" height="50" relative="1" as="geometry">
            <mxPoint x="752.6100000000001" y="760.7" as="sourcePoint" />
            <mxPoint x="600" y="761.3000000000002" as="targetPoint" />
          </mxGeometry>
        </mxCell>
        <mxCell id="5lGT_C94pFLsxoCqDlY4-55" value="&lt;span style=&quot;font-size: 10px;&quot;&gt;Login Status&lt;/span&gt;" style="text;html=1;align=center;verticalAlign=middle;whiteSpace=wrap;rounded=0;" parent="1" vertex="1">
          <mxGeometry x="570" y="570" width="130" height="30" as="geometry" />
        </mxCell>
        <mxCell id="5lGT_C94pFLsxoCqDlY4-56" value="&lt;font style=&quot;font-size: 10px;&quot;&gt;Request User files&lt;/font&gt;" style="text;html=1;align=center;verticalAlign=middle;whiteSpace=wrap;rounded=0;" parent="1" vertex="1">
          <mxGeometry x="576" y="610" width="143" height="30" as="geometry" />
        </mxCell>
        <mxCell id="5lGT_C94pFLsxoCqDlY4-57" value="&lt;font style=&quot;font-size: 10px;&quot;&gt;Provide files data&lt;/font&gt;" style="text;html=1;align=center;verticalAlign=middle;whiteSpace=wrap;rounded=0;" parent="1" vertex="1">
          <mxGeometry x="585" y="736" width="119" height="30" as="geometry" />
        </mxCell>
        <mxCell id="5lGT_C94pFLsxoCqDlY4-58" value="ServiceEngine" style="text;html=1;align=center;verticalAlign=middle;whiteSpace=wrap;rounded=0;strokeColor=default;" parent="1" vertex="1">
          <mxGeometry x="870" y="120" width="90" height="30" as="geometry" />
        </mxCell>
        <mxCell id="5lGT_C94pFLsxoCqDlY4-59" value="" style="endArrow=classic;html=1;rounded=0;entryX=-0.037;entryY=0.2;entryDx=0;entryDy=0;entryPerimeter=0;exitX=1.026;exitY=0.133;exitDx=0;exitDy=0;exitPerimeter=0;" parent="1" edge="1">
          <mxGeometry width="50" height="50" relative="1" as="geometry">
            <mxPoint x="763" y="275" as="sourcePoint" />
            <mxPoint x="909.1300000000001" y="275" as="targetPoint" />
          </mxGeometry>
        </mxCell>
        <mxCell id="5lGT_C94pFLsxoCqDlY4-60" value="&lt;font style=&quot;font-size: 10px;&quot;&gt;Process Login Request&lt;/font&gt;" style="text;html=1;align=center;verticalAlign=middle;whiteSpace=wrap;rounded=0;" parent="1" vertex="1">
          <mxGeometry x="750" y="250" width="140" height="30" as="geometry" />
        </mxCell>
        <mxCell id="5lGT_C94pFLsxoCqDlY4-61" value="alt" style="shape=umlFrame;whiteSpace=wrap;html=1;pointerEvents=0;fillColor=none;width=40;height=20;" parent="1" vertex="1">
          <mxGeometry x="863" y="300" width="270" height="120" as="geometry" />
        </mxCell>
        <mxCell id="5lGT_C94pFLsxoCqDlY4-64" value="" style="endArrow=classic;html=1;rounded=0;exitX=-0.019;exitY=0.367;exitDx=0;exitDy=0;exitPerimeter=0;dashed=1;" parent="1" edge="1">
          <mxGeometry width="50" height="50" relative="1" as="geometry">
            <mxPoint x="1080" y="350" as="sourcePoint" />
            <mxPoint x="920.19" y="350" as="targetPoint" />
          </mxGeometry>
        </mxCell>
        <mxCell id="5lGT_C94pFLsxoCqDlY4-65" value="" style="endArrow=classic;html=1;rounded=0;exitX=-0.019;exitY=0.367;exitDx=0;exitDy=0;exitPerimeter=0;dashed=1;" parent="1" edge="1">
          <mxGeometry width="50" height="50" relative="1" as="geometry">
            <mxPoint x="1080" y="410" as="sourcePoint" />
            <mxPoint x="920" y="410" as="targetPoint" />
          </mxGeometry>
        </mxCell>
        <mxCell id="5lGT_C94pFLsxoCqDlY4-66" value="&lt;font style=&quot;font-size: 10px;&quot;&gt;&lt;b&gt;[user found]&lt;/b&gt;&lt;/font&gt;" style="text;html=1;align=center;verticalAlign=middle;whiteSpace=wrap;rounded=0;" parent="1" vertex="1">
          <mxGeometry x="920" y="295" width="70" height="30" as="geometry" />
        </mxCell>
        <mxCell id="5lGT_C94pFLsxoCqDlY4-67" value="&lt;font style=&quot;font-size: 10px;&quot;&gt;&lt;b&gt;[user not found]&lt;/b&gt;&lt;/font&gt;" style="text;html=1;align=center;verticalAlign=middle;whiteSpace=wrap;rounded=0;" parent="1" vertex="1">
          <mxGeometry x="920" y="355" width="90" height="30" as="geometry" />
        </mxCell>
        <mxCell id="5lGT_C94pFLsxoCqDlY4-68" value="&lt;font style=&quot;font-size: 10px;&quot;&gt;Retrieve User Data&lt;/font&gt;" style="text;html=1;align=center;verticalAlign=middle;whiteSpace=wrap;rounded=0;" parent="1" vertex="1">
          <mxGeometry x="913" y="325" width="110" height="30" as="geometry" />
        </mxCell>
        <mxCell id="5lGT_C94pFLsxoCqDlY4-69" value="&lt;span style=&quot;font-size: 10px;&quot;&gt;Reject access&lt;/span&gt;" style="text;html=1;align=center;verticalAlign=middle;whiteSpace=wrap;rounded=0;" parent="1" vertex="1">
          <mxGeometry x="902" y="385" width="110" height="30" as="geometry" />
        </mxCell>
        <mxCell id="5lGT_C94pFLsxoCqDlY4-70" value="" style="endArrow=classic;html=1;rounded=0;entryX=-0.037;entryY=0.2;entryDx=0;entryDy=0;entryPerimeter=0;exitX=0.026;exitY=0.533;exitDx=0;exitDy=0;exitPerimeter=0;dashed=1;" parent="1" edge="1">
          <mxGeometry width="50" height="50" relative="1" as="geometry">
            <mxPoint x="910" y="480" as="sourcePoint" />
            <mxPoint x="765.0000000000002" y="480" as="targetPoint" />
          </mxGeometry>
        </mxCell>
        <mxCell id="5lGT_C94pFLsxoCqDlY4-71" value="&lt;font style=&quot;font-size: 10px;&quot;&gt;User Authentication result&lt;/font&gt;" style="text;html=1;align=center;verticalAlign=middle;whiteSpace=wrap;rounded=0;" parent="1" vertex="1">
          <mxGeometry x="763.5" y="455" width="126" height="30" as="geometry" />
        </mxCell>
        <mxCell id="5lGT_C94pFLsxoCqDlY4-72" value="" style="endArrow=classic;html=1;rounded=0;entryX=-0.037;entryY=0.2;entryDx=0;entryDy=0;entryPerimeter=0;exitX=1.026;exitY=0.133;exitDx=0;exitDy=0;exitPerimeter=0;" parent="1" edge="1">
          <mxGeometry width="50" height="50" relative="1" as="geometry">
            <mxPoint x="764" y="515" as="sourcePoint" />
            <mxPoint x="910.5" y="515" as="targetPoint" />
          </mxGeometry>
        </mxCell>
        <mxCell id="5lGT_C94pFLsxoCqDlY4-73" value="&lt;font style=&quot;font-size: 10px;&quot;&gt;Add new Session&lt;/font&gt;" style="text;html=1;align=center;verticalAlign=middle;whiteSpace=wrap;rounded=0;" parent="1" vertex="1">
          <mxGeometry x="759.5" y="490" width="100" height="30" as="geometry" />
        </mxCell>
        <mxCell id="5lGT_C94pFLsxoCqDlY4-74" value="" style="endArrow=classic;html=1;rounded=0;entryX=-0.037;entryY=0.2;entryDx=0;entryDy=0;entryPerimeter=0;exitX=0.026;exitY=0.533;exitDx=0;exitDy=0;exitPerimeter=0;dashed=1;" parent="1" edge="1">
          <mxGeometry width="50" height="50" relative="1" as="geometry">
            <mxPoint x="910.5" y="580" as="sourcePoint" />
            <mxPoint x="764.0000000000002" y="580" as="targetPoint" />
          </mxGeometry>
        </mxCell>
        <mxCell id="5lGT_C94pFLsxoCqDlY4-75" value="&lt;font style=&quot;font-size: 10px;&quot;&gt;Active Session&lt;/font&gt;" style="text;html=1;align=center;verticalAlign=middle;whiteSpace=wrap;rounded=0;" parent="1" vertex="1">
          <mxGeometry x="738" y="555" width="130" height="30" as="geometry" />
        </mxCell>
        <mxCell id="5lGT_C94pFLsxoCqDlY4-77" value="" style="endArrow=classic;html=1;rounded=0;entryX=-0.037;entryY=0.2;entryDx=0;entryDy=0;entryPerimeter=0;exitX=1.026;exitY=0.133;exitDx=0;exitDy=0;exitPerimeter=0;" parent="1" edge="1">
          <mxGeometry width="50" height="50" relative="1" as="geometry">
            <mxPoint x="920" y="290" as="sourcePoint" />
            <mxPoint x="1079" y="290" as="targetPoint" />
          </mxGeometry>
        </mxCell>
        <mxCell id="5lGT_C94pFLsxoCqDlY4-78" value="&lt;span style=&quot;font-size: 10px;&quot;&gt;Find User by Username and Password&lt;/span&gt;" style="text;html=1;align=left;verticalAlign=middle;whiteSpace=wrap;rounded=0;" parent="1" vertex="1">
          <mxGeometry x="923" y="255" width="173" height="30" as="geometry" />
        </mxCell>
        <mxCell id="5lGT_C94pFLsxoCqDlY4-79" value="" style="endArrow=classic;html=1;rounded=0;entryX=-0.037;entryY=0.2;entryDx=0;entryDy=0;entryPerimeter=0;exitX=1.026;exitY=0.133;exitDx=0;exitDy=0;exitPerimeter=0;" parent="1" edge="1">
          <mxGeometry width="50" height="50" relative="1" as="geometry">
            <mxPoint x="920" y="540" as="sourcePoint" />
            <mxPoint x="1080" y="540" as="targetPoint" />
          </mxGeometry>
        </mxCell>
        <mxCell id="5lGT_C94pFLsxoCqDlY4-80" value="&lt;font style=&quot;font-size: 10px;&quot;&gt;Create Session&lt;/font&gt;" style="text;html=1;align=center;verticalAlign=middle;whiteSpace=wrap;rounded=0;" parent="1" vertex="1">
          <mxGeometry x="906" y="515" width="110" height="30" as="geometry" />
        </mxCell>
        <mxCell id="5lGT_C94pFLsxoCqDlY4-81" value="" style="endArrow=classic;html=1;rounded=0;entryX=-0.037;entryY=0.2;entryDx=0;entryDy=0;entryPerimeter=0;exitX=1.026;exitY=0.133;exitDx=0;exitDy=0;exitPerimeter=0;dashed=1;" parent="1" edge="1">
          <mxGeometry width="50" height="50" relative="1" as="geometry">
            <mxPoint x="1080" y="569.8" as="sourcePoint" />
            <mxPoint x="920" y="569.8" as="targetPoint" />
          </mxGeometry>
        </mxCell>
        <mxCell id="5lGT_C94pFLsxoCqDlY4-82" value="&lt;font style=&quot;font-size: 10px;&quot;&gt;New Session created&lt;/font&gt;" style="text;html=1;align=center;verticalAlign=middle;whiteSpace=wrap;rounded=0;" parent="1" vertex="1">
          <mxGeometry x="913" y="545" width="123" height="30" as="geometry" />
        </mxCell>
        <mxCell id="5lGT_C94pFLsxoCqDlY4-83" value="" style="endArrow=classic;html=1;rounded=0;entryX=-0.037;entryY=0.2;entryDx=0;entryDy=0;entryPerimeter=0;exitX=1.026;exitY=0.133;exitDx=0;exitDy=0;exitPerimeter=0;" parent="1" edge="1">
          <mxGeometry width="50" height="50" relative="1" as="geometry">
            <mxPoint x="764" y="650" as="sourcePoint" />
            <mxPoint x="910" y="650" as="targetPoint" />
          </mxGeometry>
        </mxCell>
        <mxCell id="5lGT_C94pFLsxoCqDlY4-84" value="&lt;font style=&quot;font-size: 10px;&quot;&gt;Process files request&lt;/font&gt;" style="text;html=1;align=center;verticalAlign=middle;whiteSpace=wrap;rounded=0;" parent="1" vertex="1">
          <mxGeometry x="751" y="625" width="131" height="30" as="geometry" />
        </mxCell>
        <mxCell id="5lGT_C94pFLsxoCqDlY4-85" value="" style="strokeWidth=1;html=1;shape=mxgraph.flowchart.database;whiteSpace=wrap;" parent="1" vertex="1">
          <mxGeometry x="1055" y="110" width="60" height="50" as="geometry" />
        </mxCell>
        <mxCell id="5lGT_C94pFLsxoCqDlY4-86" value="Database" style="text;html=1;align=center;verticalAlign=middle;whiteSpace=wrap;rounded=0;" parent="1" vertex="1">
          <mxGeometry x="1055" y="125" width="60" height="30" as="geometry" />
        </mxCell>
        <mxCell id="5lGT_C94pFLsxoCqDlY4-87" value="" style="endArrow=classic;html=1;rounded=0;entryX=-0.037;entryY=0.2;entryDx=0;entryDy=0;entryPerimeter=0;exitX=1.026;exitY=0.133;exitDx=0;exitDy=0;exitPerimeter=0;" parent="1" edge="1">
          <mxGeometry width="50" height="50" relative="1" as="geometry">
            <mxPoint x="920" y="670" as="sourcePoint" />
            <mxPoint x="1080" y="670" as="targetPoint" />
          </mxGeometry>
        </mxCell>
        <mxCell id="5lGT_C94pFLsxoCqDlY4-88" value="&lt;font style=&quot;font-size: 10px;&quot;&gt;Get files data for user&lt;/font&gt;" style="text;html=1;align=center;verticalAlign=middle;whiteSpace=wrap;rounded=0;" parent="1" vertex="1">
          <mxGeometry x="921" y="645" width="105" height="30" as="geometry" />
        </mxCell>
        <mxCell id="5lGT_C94pFLsxoCqDlY4-89" value="" style="endArrow=classic;html=1;rounded=0;entryX=-0.037;entryY=0.2;entryDx=0;entryDy=0;entryPerimeter=0;exitX=1.026;exitY=0.133;exitDx=0;exitDy=0;exitPerimeter=0;dashed=1;" parent="1" edge="1">
          <mxGeometry width="50" height="50" relative="1" as="geometry">
            <mxPoint x="1080" y="710" as="sourcePoint" />
            <mxPoint x="920" y="710" as="targetPoint" />
          </mxGeometry>
        </mxCell>
        <mxCell id="5lGT_C94pFLsxoCqDlY4-90" value="&lt;font style=&quot;font-size: 10px;&quot;&gt;Retrieve File Data&lt;/font&gt;" style="text;html=1;align=center;verticalAlign=middle;whiteSpace=wrap;rounded=0;" parent="1" vertex="1">
          <mxGeometry x="915" y="685" width="103" height="30" as="geometry" />
        </mxCell>
        <mxCell id="5lGT_C94pFLsxoCqDlY4-91" value="" style="endArrow=classic;html=1;rounded=0;entryX=-0.037;entryY=0.2;entryDx=0;entryDy=0;entryPerimeter=0;exitX=1.026;exitY=0.133;exitDx=0;exitDy=0;exitPerimeter=0;dashed=1;" parent="1" edge="1">
          <mxGeometry width="50" height="50" relative="1" as="geometry">
            <mxPoint x="910" y="750" as="sourcePoint" />
            <mxPoint x="764" y="750" as="targetPoint" />
          </mxGeometry>
        </mxCell>
        <mxCell id="5lGT_C94pFLsxoCqDlY4-92" value="&lt;font style=&quot;font-size: 10px;&quot;&gt;File data retrieved&lt;/font&gt;" style="text;html=1;align=center;verticalAlign=middle;whiteSpace=wrap;rounded=0;" parent="1" vertex="1">
          <mxGeometry x="754" y="725" width="111" height="30" as="geometry" />
        </mxCell>
        <mxCell id="_hDlO5acoqLrmTqEBLsP-68" value="FTP Client" style="text;html=1;align=center;verticalAlign=middle;whiteSpace=wrap;rounded=0;strokeColor=default;" parent="1" vertex="1">
          <mxGeometry x="367.5" y="120" width="75" height="30" as="geometry" />
        </mxCell>
        <mxCell id="_hDlO5acoqLrmTqEBLsP-69" value="" style="rounded=0;whiteSpace=wrap;html=1;" parent="1" vertex="1">
          <mxGeometry x="230" y="190" width="10" height="600" as="geometry" />
        </mxCell>
        <mxCell id="_hDlO5acoqLrmTqEBLsP-70" value="" style="endArrow=none;dashed=1;html=1;dashPattern=1 3;strokeWidth=2;rounded=0;" parent="1" edge="1">
          <mxGeometry width="50" height="50" relative="1" as="geometry">
            <mxPoint x="234.84" y="810" as="sourcePoint" />
            <mxPoint x="234.84" y="790" as="targetPoint" />
          </mxGeometry>
        </mxCell>
        <mxCell id="_hDlO5acoqLrmTqEBLsP-71" value="" style="endArrow=none;dashed=1;html=1;dashPattern=1 3;strokeWidth=2;rounded=0;" parent="1" edge="1">
          <mxGeometry width="50" height="50" relative="1" as="geometry">
            <mxPoint x="234.84" y="190" as="sourcePoint" />
            <mxPoint x="234.84" y="150" as="targetPoint" />
          </mxGeometry>
        </mxCell>
        <mxCell id="_hDlO5acoqLrmTqEBLsP-72" value="" style="endArrow=classic;html=1;rounded=0;entryX=1.039;entryY=0.057;entryDx=0;entryDy=0;entryPerimeter=0;exitX=-0.009;exitY=0.057;exitDx=0;exitDy=0;exitPerimeter=0;dashed=1;" parent="1" edge="1">
          <mxGeometry width="50" height="50" relative="1" as="geometry">
            <mxPoint x="590" y="310" as="sourcePoint" />
            <mxPoint x="410" y="310" as="targetPoint" />
          </mxGeometry>
        </mxCell>
        <mxCell id="_hDlO5acoqLrmTqEBLsP-73" value="&lt;font style=&quot;font-size: 10px;&quot;&gt;Connection confirmation&lt;/font&gt;" style="text;html=1;align=center;verticalAlign=middle;whiteSpace=wrap;rounded=0;" parent="1" vertex="1">
          <mxGeometry x="391" y="285" width="160" height="30" as="geometry" />
        </mxCell>
        <mxCell id="_hDlO5acoqLrmTqEBLsP-74" value="" style="endArrow=classic;html=1;rounded=0;entryX=0;entryY=0.25;entryDx=0;entryDy=0;exitX=1;exitY=0.25;exitDx=0;exitDy=0;" parent="1" source="_hDlO5acoqLrmTqEBLsP-69" target="5lGT_C94pFLsxoCqDlY4-2" edge="1">
          <mxGeometry width="50" height="50" relative="1" as="geometry">
            <mxPoint x="260" y="380" as="sourcePoint" />
            <mxPoint x="310" y="330" as="targetPoint" />
          </mxGeometry>
        </mxCell>
        <mxCell id="_hDlO5acoqLrmTqEBLsP-75" value="&lt;font style=&quot;font-size: 10px;&quot;&gt;Enter username, password&lt;/font&gt;" style="text;html=1;align=center;verticalAlign=middle;whiteSpace=wrap;rounded=0;" parent="1" vertex="1">
          <mxGeometry x="230" y="315" width="150" height="30" as="geometry" />
        </mxCell>
        <mxCell id="_hDlO5acoqLrmTqEBLsP-76" value="" style="endArrow=classic;html=1;rounded=0;entryX=-0.055;entryY=0.017;entryDx=0;entryDy=0;entryPerimeter=0;exitX=1.024;exitY=0.017;exitDx=0;exitDy=0;exitPerimeter=0;" parent="1" source="_hDlO5acoqLrmTqEBLsP-69" target="5lGT_C94pFLsxoCqDlY4-2" edge="1">
          <mxGeometry width="50" height="50" relative="1" as="geometry">
            <mxPoint x="250" y="310" as="sourcePoint" />
            <mxPoint x="300" y="260" as="targetPoint" />
          </mxGeometry>
        </mxCell>
        <mxCell id="_hDlO5acoqLrmTqEBLsP-78" value="&lt;font style=&quot;font-size: 10px;&quot;&gt;Start FTP Client&lt;/font&gt;" style="text;strokeColor=none;fillColor=none;align=left;verticalAlign=middle;spacingLeft=4;spacingRight=4;overflow=hidden;points=[[0,0.5],[1,0.5]];portConstraint=eastwest;rotatable=0;whiteSpace=wrap;html=1;" parent="1" vertex="1">
          <mxGeometry x="239" y="175" width="140" height="30" as="geometry" />
        </mxCell>
        <mxCell id="_hDlO5acoqLrmTqEBLsP-79" value="" style="endArrow=classic;html=1;rounded=0;entryX=1.115;entryY=0.052;entryDx=0;entryDy=0;entryPerimeter=0;dashed=1;" parent="1" target="_hDlO5acoqLrmTqEBLsP-69" edge="1">
          <mxGeometry width="50" height="50" relative="1" as="geometry">
            <mxPoint x="400" y="221" as="sourcePoint" />
            <mxPoint x="330" y="250" as="targetPoint" />
          </mxGeometry>
        </mxCell>
        <mxCell id="_hDlO5acoqLrmTqEBLsP-80" value="&lt;font style=&quot;font-size: 10px;&quot;&gt;Display Login Responce&lt;/font&gt;" style="text;html=1;align=center;verticalAlign=middle;whiteSpace=wrap;rounded=0;" parent="1" vertex="1">
          <mxGeometry x="214" y="196" width="170" height="30" as="geometry" />
        </mxCell>
        <mxCell id="_hDlO5acoqLrmTqEBLsP-81" value="" style="endArrow=classic;html=1;rounded=0;entryX=-0.024;entryY=0.082;entryDx=0;entryDy=0;entryPerimeter=0;exitX=1;exitY=0.083;exitDx=0;exitDy=0;exitPerimeter=0;" parent="1" source="_hDlO5acoqLrmTqEBLsP-69" target="5lGT_C94pFLsxoCqDlY4-2" edge="1">
          <mxGeometry width="50" height="50" relative="1" as="geometry">
            <mxPoint x="270" y="310" as="sourcePoint" />
            <mxPoint x="320" y="260" as="targetPoint" />
          </mxGeometry>
        </mxCell>
        <mxCell id="_hDlO5acoqLrmTqEBLsP-82" value="&lt;font style=&quot;font-size: 10px;&quot;&gt;Enter FTP Server Address&lt;/font&gt;" style="text;html=1;align=center;verticalAlign=middle;whiteSpace=wrap;rounded=0;" parent="1" vertex="1">
          <mxGeometry x="237" y="216" width="131" height="30" as="geometry" />
        </mxCell>
        <mxCell id="_hDlO5acoqLrmTqEBLsP-83" value="" style="endArrow=classic;html=1;rounded=0;entryX=1.018;entryY=0.983;entryDx=0;entryDy=0;entryPerimeter=0;exitX=0;exitY=0.983;exitDx=0;exitDy=0;exitPerimeter=0;dashed=1;" parent="1" source="5lGT_C94pFLsxoCqDlY4-2" target="_hDlO5acoqLrmTqEBLsP-69" edge="1">
          <mxGeometry width="50" height="50" relative="1" as="geometry">
            <mxPoint x="80" y="630" as="sourcePoint" />
            <mxPoint x="130" y="580" as="targetPoint" />
          </mxGeometry>
        </mxCell>
        <mxCell id="_hDlO5acoqLrmTqEBLsP-84" value="&lt;font style=&quot;font-size: 10px;&quot;&gt;Display menu and user data&lt;/font&gt;" style="text;html=1;align=center;verticalAlign=middle;whiteSpace=wrap;rounded=0;" parent="1" vertex="1">
          <mxGeometry x="224" y="755" width="165" height="30" as="geometry" />
        </mxCell>
        <mxCell id="_hDlO5acoqLrmTqEBLsP-85" value="" style="shape=note;whiteSpace=wrap;html=1;backgroundOutline=1;darkOpacity=0.05;size=6;" parent="1" vertex="1">
          <mxGeometry x="390" y="350" width="220" height="20" as="geometry" />
        </mxCell>
        <mxCell id="_hDlO5acoqLrmTqEBLsP-87" value="" style="shape=note;whiteSpace=wrap;html=1;backgroundOutline=1;darkOpacity=0.05;size=6;" parent="1" vertex="1">
          <mxGeometry x="688.5" y="320" width="140" height="20" as="geometry" />
        </mxCell>
        <mxCell id="_hDlO5acoqLrmTqEBLsP-88" value="&lt;span style=&quot;font-size: 10px;&quot;&gt;FTP Controller auth user&lt;/span&gt;" style="text;html=1;align=center;verticalAlign=middle;whiteSpace=wrap;rounded=0;" parent="1" vertex="1">
          <mxGeometry x="690" y="315" width="140" height="30" as="geometry" />
        </mxCell>
        <mxCell id="_hDlO5acoqLrmTqEBLsP-89" value="" style="shape=note;whiteSpace=wrap;html=1;backgroundOutline=1;darkOpacity=0.05;size=6;" parent="1" vertex="1">
          <mxGeometry x="835" y="435" width="160" height="20" as="geometry" />
        </mxCell>
        <mxCell id="_hDlO5acoqLrmTqEBLsP-90" value="&lt;span style=&quot;font-size: 10px;&quot;&gt;Authentication success or failure&lt;/span&gt;" style="text;html=1;align=center;verticalAlign=middle;whiteSpace=wrap;rounded=0;" parent="1" vertex="1">
          <mxGeometry x="830" y="430" width="165" height="30" as="geometry" />
        </mxCell>
        <mxCell id="_hDlO5acoqLrmTqEBLsP-86" value="&lt;font style=&quot;font-size: 10px;&quot;&gt;Connection establishment phase&lt;/font&gt;" style="text;html=1;align=center;verticalAlign=middle;whiteSpace=wrap;rounded=0;" parent="1" vertex="1">
          <mxGeometry x="390" y="345" width="210" height="30" as="geometry" />
        </mxCell>
        <mxCell id="_hDlO5acoqLrmTqEBLsP-93" value="" style="shape=note;whiteSpace=wrap;html=1;backgroundOutline=1;darkOpacity=0.05;size=6;" parent="1" vertex="1">
          <mxGeometry x="698.25" y="535" width="123.5" height="20" as="geometry" />
        </mxCell>
        <mxCell id="_hDlO5acoqLrmTqEBLsP-95" value="&lt;font style=&quot;font-size: 10px;&quot;&gt;Logging new session&lt;/font&gt;" style="text;html=1;align=center;verticalAlign=middle;whiteSpace=wrap;rounded=0;" parent="1" vertex="1">
          <mxGeometry x="700" y="530" width="119.25" height="30" as="geometry" />
        </mxCell>
        <mxCell id="_hDlO5acoqLrmTqEBLsP-96" value="" style="shape=note;whiteSpace=wrap;html=1;backgroundOutline=1;darkOpacity=0.05;size=6;" parent="1" vertex="1">
          <mxGeometry x="654.25" y="690" width="208.5" height="20" as="geometry" />
        </mxCell>
        <mxCell id="_hDlO5acoqLrmTqEBLsP-97" value="&lt;font style=&quot;font-size: 10px;&quot;&gt;FTP Controller processes user files request&lt;/font&gt;" style="text;html=1;align=left;verticalAlign=middle;whiteSpace=wrap;rounded=0;" parent="1" vertex="1">
          <mxGeometry x="661" y="685" width="195" height="30" as="geometry" />
        </mxCell>
      </root>
    </mxGraphModel>
  </diagram>
</mxfile>
